<svg width="138" height="20" viewBox="0 0 138 20" fill="none" xmlns="http://www.w3.org/2000/svg"><path d="M115.436 4.793c-.566.045-1.152.28-1.76 1.066l-8.749 11.816h3.595l1.784-2.644h6.531l.677 2.65h3.51L117.645 6.45c-.456-1.376-1.322-1.735-2.209-1.656m-3.62 8.06 3.395-4.458 1.063 4.458zm21.745-5.882a16.8 16.8 0 0 1 3.784.4L138 4.776a21.4 21.4 0 0 0-4.001-.427c-6.353 0-10.384 2.835-10.88 7.052-.438 3.735 2.296 6.426 8.183 6.426a22.4 22.4 0 0 0 3.673-.322l.711-2.835a14.6 14.6 0 0 1-4.344.535c-2.994-.042-4.703-1.676-4.455-3.747.325-2.811 2.97-4.512 6.674-4.485m-33.038-4.787c-.815-.021-1.41.26-2.11 1.183l-8.25 10.876-3.175-10.64c-.33-1.078-1.055-1.437-1.718-1.431-1.005 0-1.512.413-2.043 1.328l-7.276 14.18h4.07L84.944 7.9l3.076 9.781h3.383l7.434-9.723-.037 9.723h3.493l-.028-13.63c.009-1.313-.868-1.844-1.742-1.865M68.049 17.681h3.687l2.343-9.577.848-3.466h-3.642zm-7-13.043h-7.077L50.78 17.68h3.629l1.21-4.898h1.863L60.7 17.68h3.953l-3.605-5.193c3.2-.785 4.289-2.402 4.488-4.134s-.834-3.716-4.488-3.716m.862 3.902c-.148 1.276-1.416 2.027-3.179 2.027h-2.586l.965-3.932h2.722c1.467 0 2.22.67 2.078 1.905m-16.127-4.6a3.82 3.82 0 0 0-2.266-1.858 3.86 3.86 0 0 0-2.924.28L21.735 12.376l3.877-10.419.04-.109a1.37 1.37 0 0 0-.367-1.49 1.39 1.39 0 0 0-1.526-.225L.483 11.177a.87.87 0 0 0-.406 1.133.87.87 0 0 0 1.123.448l20.15-8.573-6.353 12.357a2.4 2.4 0 0 0-.086 1.985 2.37 2.37 0 0 0 1.286 1.289 2.4 2.4 0 0 0 1.825.007l.248-.1 25.6-10.434q.18-.07.35-.164a3.84 3.84 0 0 0 1.862-2.271 3.8 3.8 0 0 0-.299-2.915" fill="#fff"/></svg>